<svg width="200" height="200" viewBox="0 0 200 200" fill="none" xmlns="http://www.w3.org/2000/svg">
<rect width="200" height="200" rx="100" fill="white"/>
<path d="M165.991 111.45C166.86 106.556 171.532 103.294 176.426 104.162C181.32 105.031 184.584 109.703 183.715 114.597C180.612 132.079 172.017 148.127 159.177 160.445C146.337 172.762 129.91 180.718 112.252 183.184C94.5946 185.649 76.6023 182.498 60.8516 174.179C45.1002 165.859 32.3932 152.794 24.5625 136.845C22.3718 132.383 24.213 126.989 28.6748 124.799C33.1365 122.608 38.5291 124.45 40.7197 128.911C46.8677 141.433 56.8541 151.711 69.2578 158.263C81.6624 164.815 95.8425 167.3 109.763 165.356C123.683 163.413 136.618 157.143 146.717 147.456C156.814 137.769 163.557 125.163 165.991 111.45Z" fill="#D8D8D8"/>
<path d="M88.748 16.8164C106.405 14.3513 124.398 17.5019 140.148 25.8213C155.9 34.141 168.607 47.2064 176.438 63.1553C178.628 67.6171 176.787 73.0105 172.325 75.2012C167.864 77.3916 162.471 75.5504 160.28 71.0889C154.132 58.5671 144.146 48.2889 131.742 41.7373C119.338 35.1853 105.158 32.7002 91.2373 34.6436C77.3175 36.5869 64.3826 42.8568 54.2842 52.5439C44.1866 62.2305 37.4429 74.8365 35.0088 88.5498C34.1399 93.4436 29.4681 96.7065 24.5742 95.8379C19.6802 94.9692 16.4165 90.2974 17.2852 85.4033C20.3883 67.921 28.9825 51.8727 41.8232 39.5547C54.6631 27.2376 71.0904 19.2816 88.748 16.8164Z" fill="black"/>
<path d="M27.5683 119.089L50.1365 80H5.00001L27.5683 119.089Z" fill="black"/>
<path d="M172.568 80L150 119.089L195.137 119.089L172.568 80Z" fill="#D8D8D8"/>
<line x1="52.7469" y1="66.5688" x2="98.7469" y2="39.5688" stroke="white"/>
<path d="M111.777 87.6585L116.114 103.962L104.164 115.868L87.8776 111.473L83.5406 95.1701L95.4906 83.2632L111.777 87.6585Z" fill="#05808C" stroke="white" stroke-width="2"/>
<path d="M141.946 79.6329L146.283 95.936L134.333 107.843L118.047 103.448L113.71 87.1445L125.66 75.2376L141.946 79.6329Z" fill="#05808C" stroke="white" stroke-width="2"/>
<path d="M81.6084 95.6841L85.9453 111.987L73.9953 123.894L57.7086 119.499L53.3717 103.196L65.3216 91.2887L81.6084 95.6841Z" fill="#05808C" stroke="white" stroke-width="2"/>
<path d="M103.624 53.1238L119.912 57.5195L124.248 73.8219L112.299 85.7289L96.0111 81.3333L91.6745 65.0309L103.624 53.1238Z" fill="#05808C" stroke="white" stroke-width="2"/>
<path d="M87.356 113.404L103.643 117.799L107.98 134.102L96.0303 146.009L79.7429 141.613L75.4062 125.311L87.356 113.404Z" fill="#05808C" stroke="white" stroke-width="2"/>
<path d="M61.5057 73.0571L73.4561 61.1496L89.7428 65.5452L94.0797 81.8476L82.1293 93.7551L65.8426 89.3595L61.5057 73.0571Z" fill="#05808C" stroke="white" stroke-width="2"/>
<path d="M105.575 117.286L117.526 105.378L133.812 109.774L138.149 126.076L126.199 137.984L109.912 133.588L105.575 117.286Z" fill="#05808C" stroke="white" stroke-width="2"/>
</svg>
